<?xml version="1.0" encoding="UTF-8"?>
<svg xmlns="http://www.w3.org/2000/svg" width="516" height="350" viewBox="0 0 516 350" fill="none">
  <path d="M83.7634 174.982C130.46 128.328 206.195 128.329 252.891 174.982L95.6058 17.8404C88.9046 11.1452 77.7713 11.8891 72.116 19.4876C37.4218 66.2653 41.322 132.579 83.7634 174.982Z" fill="#1A9DD1"></path>
  <path d="M83.7635 174.982C41.3398 217.367 37.4573 283.699 72.116 330.477C77.7536 338.093 88.9047 338.819 95.6059 332.124L252.891 174.982C206.177 221.654 130.46 221.636 83.7635 174.982Z" fill="#E91E45"></path>
  <path d="M83.7642 174.982C130.46 221.636 206.195 221.636 252.891 174.982C206.16 128.329 130.46 128.328 83.7642 174.982Z" fill="#6C2E68"></path>
  <path d="M252.873 175L417.001 338.979C423.702 345.674 434.8 344.895 440.491 337.332C477.029 288.641 473.129 219.28 428.808 175C380.233 223.531 301.448 223.531 252.873 175Z" fill="#F6C318"></path>
  <path d="M252.873 175C301.448 126.469 380.233 126.469 428.808 175C473.129 130.72 477.029 61.3591 440.491 12.6685C434.8 5.10545 423.702 4.32613 417.001 11.0213L252.873 175Z" fill="#57B949"></path>
  <path d="M252.873 175C301.448 223.531 380.233 223.531 428.808 175C380.215 126.451 301.466 126.451 252.873 175Z" fill="#105B8B"></path>
  <path d="M284.873 143.03L252.873 175L220.874 143.03L229.047 134.864C242.183 121.74 263.564 121.74 276.7 134.864L284.873 143.03ZM252.873 160.901L269.201 144.588C270.655 143.136 270.389 140.745 268.669 139.593C259.167 133.182 246.58 133.182 237.042 139.593C235.323 140.745 235.057 143.136 236.51 144.588L252.873 160.901Z" fill="white"></path>
  <path d="M268.705 133.748L260.106 129.267C260.213 129.055 272.658 109.43 282.799 86.2268C283.348 84.9692 284.784 84.3848 286.043 84.9338C287.302 85.4829 287.887 86.9176 287.355 88.1929C277.303 111.874 268.811 133.536 268.705 133.748Z" fill="white"></path>
  <path d="M241.422 131.393L232.823 135.874C232.717 135.661 224.775 115.328 214.776 91.7708C214.227 90.5133 214.829 89.0609 216.088 88.5118C217.329 87.9805 218.783 88.5827 219.332 89.8048C229.42 112.919 241.315 131.18 241.422 131.393Z" fill="white"></path>
</svg>
