<?xml version="1.0" encoding="UTF-8"?>
<svg xmlns="http://www.w3.org/2000/svg" width="193" height="131" viewBox="0 0 193 131" fill="none">
  <path d="M35.95 90.7058C31.8888 94.7039 26.6361 96.5617 20.9366 96.5617C6.26086 96.5617 0.0549426 86.4798 0.000330505 76.2294C-0.0542815 65.9246 6.65804 55.4463 20.9366 55.4463C26.2985 55.4463 31.3774 57.4726 35.4436 61.4707L30.4788 66.2565C27.8823 63.7199 24.3821 62.5408 20.9416 62.5408C11.4043 62.5408 7.28359 69.6353 7.3382 76.2245C7.39282 82.7592 11.1759 89.5713 20.9416 89.5713C24.3821 89.5713 28.2794 88.1643 30.876 85.5732L35.95 90.7058Z" fill="white"></path>
  <path d="M74.7196 67.1071L61.851 84.229H60.3814L47.7958 67.0526V95.718H40.3438V56.2969H48.9228L61.285 73.2504L73.6472 56.2969H82.1716V95.718H74.7196V67.1071Z" fill="white"></path>
  <path d="M89.0508 95.6633V56.2422H96.4433V95.6633H89.0508Z" fill="white"></path>
  <path d="M127.089 65.7574C125.734 63.5032 122.01 61.363 117.72 61.363C112.19 61.363 109.539 63.6717 109.539 66.5996C109.539 70.033 113.6 70.9941 118.341 71.5539C126.583 72.5695 134.258 74.7098 134.258 84.113C134.258 92.8969 126.468 96.672 117.666 96.672C109.593 96.672 103.387 94.1949 100.453 86.9865L106.659 83.7761C108.407 88.1111 112.979 90.0284 117.775 90.0284C122.462 90.0284 126.861 88.3935 126.861 84.113C126.861 80.3973 122.968 78.8763 117.715 78.3115C109.643 77.3554 102.196 75.2151 102.196 66.3718C102.196 58.2616 110.209 54.9373 117.492 54.8828C123.643 54.8828 130.023 56.6267 133.012 62.7106L127.089 65.7574Z" fill="white"></path>
  <path d="M9.89944 107.985L8.69301 109.451C8.06249 108.728 7.15395 108.257 6.30001 108.257C4.72619 108.257 3.4999 109.476 3.4999 111.076C3.4999 112.677 4.72123 113.905 6.30001 113.905C7.12912 113.905 8.0327 113.484 8.69301 112.83L9.91434 114.153C8.94125 115.149 7.53623 115.793 6.19575 115.793C3.45026 115.793 1.375 113.762 1.375 111.101C1.375 108.456 3.48997 106.459 6.27519 106.459C7.60077 106.464 8.9909 107.053 9.89944 107.985Z" fill="white"></path>
  <path d="M17.9114 111.271V115.7H15.8907V111.86C15.8907 110.969 15.3644 110.419 14.5006 110.419C13.4878 110.433 12.8721 111.191 12.8721 112.227V115.7H10.8515V105.975H12.8721V109.893C13.3736 109.017 14.2126 108.581 15.3148 108.571C16.8985 108.571 17.9114 109.621 17.9114 111.271Z" fill="white"></path>
  <path d="M23.6128 114.879C23.1412 115.469 22.3766 115.796 21.3936 115.796C19.8843 115.796 18.9609 114.879 18.9609 113.591C18.9609 112.268 19.9191 111.48 21.6518 111.466H23.5979V111.337C23.5979 110.589 23.0965 110.158 22.1284 110.158C21.4979 110.158 20.7631 110.366 20.0283 110.772L19.3978 109.385C20.4503 108.86 21.3539 108.572 22.5901 108.572C24.4817 108.572 25.5739 109.519 25.5838 111.104L25.5987 115.706H23.6128V114.879ZM23.5979 113.294V112.664H22.0092C21.2347 112.664 20.8524 112.902 20.8524 113.462C20.8524 113.997 21.2744 114.354 21.9546 114.354C22.8085 114.354 23.4788 113.893 23.5979 113.294Z" fill="white"></path>
  <path d="M34.2208 111.272V115.701H32.2001V111.862C32.2001 110.97 31.6739 110.42 30.81 110.42C29.7972 110.435 29.1965 111.193 29.1965 112.229V115.701H27.1758V108.652H29.1965V109.885C29.6979 109.008 30.537 108.587 31.6391 108.572C33.208 108.572 34.2208 109.623 34.2208 111.272Z" fill="white"></path>
  <path d="M42.8897 115.709H40.879V114.673C40.3776 115.396 39.618 115.788 38.6449 115.788C36.6342 115.788 35.3086 114.331 35.3086 112.156C35.3086 110.006 36.6242 108.579 38.5903 108.579C39.5882 108.579 40.3627 108.971 40.8741 109.694V105.983H42.8848V115.709H42.8897ZM40.879 112.206C40.879 111.052 40.1542 110.254 39.1165 110.254C38.064 110.254 37.3441 111.066 37.3292 112.206C37.3441 113.36 38.0541 114.158 39.1165 114.158C40.1591 114.158 40.879 113.36 40.879 112.206Z" fill="white"></path>
  <path d="M46.6341 109.925C47.1207 109.058 47.92 108.587 48.9725 108.572V110.475C47.5278 110.346 46.6341 111.119 46.6341 112.308V115.701H44.6135V108.652H46.6341V109.925Z" fill="white"></path>
  <path d="M53.9879 114.879C53.5162 115.469 52.7517 115.796 51.7687 115.796C50.2594 115.796 49.3359 114.879 49.3359 113.591C49.3359 112.268 50.2941 111.48 52.0268 111.466H53.973V111.337C53.973 110.589 53.4716 110.158 52.5034 110.158C51.8729 110.158 51.1381 110.366 50.4034 110.772L49.7728 109.385C50.8254 108.86 51.7289 108.572 52.9652 108.572C54.8567 108.572 55.949 109.519 55.9589 111.104L55.9738 115.706H53.9879V114.879ZM53.973 113.294V112.664H52.3843C51.6098 112.664 51.2275 112.902 51.2275 113.462C51.2275 113.997 51.6495 114.354 52.3297 114.354C53.1886 114.354 53.8538 113.893 53.973 113.294Z" fill="white"></path>
  <path d="M69.4357 111.272V115.701H67.425V111.862C67.425 110.955 66.8988 110.42 66.0597 110.42C65.0866 110.435 64.4958 111.193 64.4958 112.214V115.701H62.4851V111.862C62.4851 110.955 61.9588 110.42 61.1297 110.42C60.1467 110.435 59.5559 111.193 59.5559 112.214V115.701H57.5353V108.652H59.5559V109.87C60.0574 109.003 60.8815 108.587 61.9489 108.572C63.1454 108.572 63.9994 109.177 64.3419 110.197C64.8036 109.107 65.6973 108.587 66.8888 108.572C68.4527 108.572 69.4357 109.623 69.4357 111.272Z" fill="white"></path>
  <path d="M75.1754 114.879C74.7037 115.469 73.9392 115.796 72.9562 115.796C71.4469 115.796 70.5234 114.879 70.5234 113.591C70.5234 112.268 71.4816 111.48 73.2143 111.466H75.1605V111.337C75.1605 110.589 74.6591 110.158 73.6909 110.158C73.0604 110.158 72.3256 110.366 71.5909 110.772L70.9603 109.385C72.0129 108.86 72.9164 108.572 74.1527 108.572C76.0442 108.572 77.1365 109.519 77.1464 111.104L77.1613 115.706H75.1754V114.879ZM75.1605 113.294V112.664H73.5718C72.7973 112.664 72.415 112.902 72.415 113.462C72.415 113.997 72.837 114.354 73.5172 114.354C74.3761 114.354 75.0463 113.893 75.1605 113.294Z" fill="white"></path>
  <path d="M80.7511 109.925C81.2377 109.058 82.037 108.587 83.0895 108.572V110.475C81.6448 110.346 80.7511 111.119 80.7511 112.308V115.701H78.7305V108.652H80.7511V109.925Z" fill="white"></path>
  <path d="M86.036 106.642C86.036 107.296 85.5892 107.772 84.9438 107.772C84.2984 107.772 83.8516 107.301 83.8516 106.642C83.8516 105.988 84.2984 105.513 84.9438 105.513C85.5892 105.518 86.036 105.988 86.036 106.642ZM83.936 115.704V108.654H85.9566V115.704H83.936Z" fill="white"></path>
  <path d="M2.55859 130.516V121.341H4.63385V130.516H2.55859Z" fill="white"></path>
  <path d="M13.4629 126.088V130.517H11.4423V126.677C11.4423 125.786 10.916 125.236 10.0522 125.236C9.03935 125.251 8.43862 126.009 8.43862 127.044V130.517H6.41797V123.467H8.43862V124.701C8.94006 123.824 9.77909 123.403 10.8813 123.388C12.4551 123.388 13.4629 124.438 13.4629 126.088Z" fill="white"></path>
  <path d="M19.3517 130.123C18.8254 130.426 18.1701 130.609 17.5148 130.609C16.2537 130.609 15.2955 129.886 15.2955 128.434V125.169H14.3125V123.782H15.2955V121.84H17.3062V123.782H19.2226V125.184H17.3062V128.092C17.3062 128.682 17.5545 128.919 17.9914 128.905C18.2545 128.905 18.5673 128.815 18.9347 128.642L19.3517 130.123Z" fill="white"></path>
  <path d="M26.9298 127.609H21.8608C22.0991 128.5 22.7793 129.025 23.6878 129.025C24.3581 129.025 24.9886 128.763 25.4751 128.277L26.5376 129.352C25.8276 130.14 24.79 130.596 23.5141 130.596C21.2551 130.596 19.8203 129.154 19.8203 127.019C19.8203 124.844 21.3048 123.402 23.4595 123.402C25.9418 123.402 27.0986 125.037 26.9298 127.609ZM25.0382 126.415C25.0134 125.483 24.4077 124.879 23.4744 124.879C22.5807 124.879 21.975 125.483 21.8211 126.415H25.0382Z" fill="white"></path>
  <path d="M30.1144 124.74C30.6009 123.873 31.4003 123.403 32.4528 123.388V125.29C31.008 125.161 30.1144 125.934 30.1144 127.123V130.517H28.0938V123.467H30.1144V124.74Z" fill="white"></path>
  <path d="M40.3575 126.088V130.517H38.3369V126.677C38.3369 125.786 37.8106 125.236 36.9467 125.236C35.9339 125.251 35.3332 126.009 35.3332 127.044V130.517H33.3126V123.467H35.3332V124.701C35.8346 123.824 36.6737 123.403 37.7759 123.388C39.3447 123.388 40.3575 124.438 40.3575 126.088Z" fill="white"></path>
  <path d="M46.0543 129.694C45.5826 130.284 44.8181 130.611 43.8351 130.611C42.3258 130.611 41.4023 129.694 41.4023 128.406C41.4023 127.084 42.3605 126.296 44.0932 126.281H46.0394V126.152C46.0394 125.404 45.538 124.973 44.5698 124.973C43.9393 124.973 43.2045 125.181 42.4698 125.587L41.8392 124.2C42.8918 123.675 43.7953 123.388 45.0316 123.388C46.9231 123.388 48.0154 124.334 48.0253 125.919L48.0402 130.522H46.0543V129.694ZM46.0394 128.109V127.48H44.4507C43.6762 127.48 43.2939 127.718 43.2939 128.278C43.2939 128.813 43.7159 129.169 44.3961 129.169C45.25 129.169 45.9202 128.709 46.0394 128.109Z" fill="white"></path>
  <path d="M53.9298 130.123C53.4036 130.426 52.7482 130.609 52.0929 130.609C50.8318 130.609 49.8736 129.886 49.8736 128.434V125.169H48.8906V123.782H49.8736V121.84H51.8844V123.782H53.8007V125.184H51.8844V128.092C51.8844 128.682 52.1326 128.919 52.5695 128.905C52.8326 128.905 53.1454 128.815 53.5128 128.642L53.9298 130.123Z" fill="white"></path>
  <path d="M57.1339 121.46C57.1339 122.114 56.6871 122.589 56.0416 122.589C55.3962 122.589 54.9494 122.119 54.9494 121.46C54.9494 120.806 55.3962 120.33 56.0416 120.33C56.6871 120.33 57.1339 120.806 57.1339 121.46ZM55.0288 130.516V123.466H57.0495V130.516H55.0288Z" fill="white"></path>
  <path d="M65.7804 126.994C65.7804 129.144 64.2562 130.601 61.9972 130.601C59.7234 130.601 58.1992 129.144 58.1992 126.994C58.1992 124.829 59.7234 123.402 61.9972 123.402C64.2562 123.402 65.7804 124.829 65.7804 126.994ZM60.2348 127.019C60.2348 128.173 60.9447 128.961 61.9972 128.961C63.0349 128.961 63.7597 128.173 63.7597 127.019C63.7597 125.865 63.0349 125.077 61.9972 125.077C60.9447 125.077 60.2348 125.865 60.2348 127.019Z" fill="white"></path>
  <path d="M74.0098 126.088V130.517H71.9891V126.677C71.9891 125.786 71.4629 125.236 70.599 125.236C69.5862 125.251 68.9855 126.009 68.9855 127.044V130.517H66.9648V123.467H68.9855V124.701C69.4869 123.824 70.326 123.403 71.4281 123.388C73.002 123.388 74.0098 124.438 74.0098 126.088Z" fill="white"></path>
  <path d="M79.7184 129.694C79.2467 130.284 78.4821 130.611 77.4991 130.611C75.9898 130.611 75.0664 129.694 75.0664 128.406C75.0664 127.084 76.0246 126.296 77.7573 126.281H79.7035V126.152C79.7035 125.404 79.202 124.973 78.2339 124.973C77.6034 124.973 76.8686 125.181 76.1338 125.587L75.5033 124.2C76.5558 123.675 77.4594 123.388 78.6956 123.388C80.5872 123.388 81.6794 124.334 81.6894 125.919L81.7042 130.522H79.7184V129.694ZM79.7035 128.109V127.48H78.1148C77.3403 127.48 76.958 127.718 76.958 128.278C76.958 128.813 77.38 129.169 78.0601 129.169C78.919 129.169 79.5893 128.709 79.7035 128.109Z" fill="white"></path>
  <path d="M83.3164 130.518V120.793H85.337V130.518H83.3164Z" fill="white"></path>
  <path d="M97.4263 122.247L96.627 123.966C95.6539 123.391 94.4971 123.02 93.7623 123.02C93.0672 123.02 92.5956 123.267 92.5956 123.768C92.5956 125.457 97.4958 124.516 97.4809 127.82C97.4809 129.614 95.917 130.585 93.8815 130.585C92.3722 130.585 90.8579 130.01 89.8203 129.128L90.6494 127.439C91.5927 128.276 92.9332 128.816 93.9063 128.816C94.7602 128.816 95.2716 128.504 95.2716 127.939C95.2716 126.21 90.3714 127.216 90.3714 123.966C90.3714 122.301 91.8012 121.251 93.9311 121.251C95.2219 121.251 96.5078 121.642 97.4263 122.247Z" fill="white"></path>
  <path d="M104.909 124.883L103.544 125.864C103.162 125.393 102.625 125.101 101.93 125.116C100.947 125.116 100.247 125.879 100.247 127.003C100.247 128.143 100.942 128.916 101.93 128.916C102.655 128.916 103.216 128.638 103.574 128.088L104.964 129.029C104.373 130.01 103.271 130.59 101.826 130.59C99.6862 130.59 98.2266 129.148 98.2266 127.013C98.2266 124.848 99.6862 123.396 101.851 123.396C103.201 123.401 104.279 123.936 104.909 124.883Z" fill="white"></path>
  <path d="M113.052 126.089V130.518H111.031V126.679C111.031 125.787 110.505 125.237 109.641 125.237C108.628 125.252 108.013 126.01 108.013 127.045V130.518H105.992V120.793H108.013V124.712C108.514 123.835 109.353 123.399 110.455 123.389C112.039 123.389 113.052 124.439 113.052 126.089Z" fill="white"></path>
  <path d="M121.691 126.994C121.691 129.144 120.166 130.601 117.907 130.601C115.634 130.601 114.109 129.144 114.109 126.994C114.109 124.829 115.634 123.402 117.907 123.402C120.166 123.402 121.691 124.829 121.691 126.994ZM116.145 127.019C116.145 128.173 116.855 128.961 117.902 128.961C118.94 128.961 119.665 128.173 119.665 127.019C119.665 125.865 118.94 125.077 117.902 125.077C116.855 125.077 116.145 125.865 116.145 127.019Z" fill="white"></path>
  <path d="M129.941 126.994C129.941 129.144 128.416 130.601 126.157 130.601C123.884 130.601 122.359 129.144 122.359 126.994C122.359 124.829 123.884 123.402 126.157 123.402C128.416 123.402 129.941 124.829 129.941 126.994ZM124.395 127.019C124.395 128.173 125.105 128.961 126.157 128.961C127.195 128.961 127.92 128.173 127.92 127.019C127.92 125.865 127.195 125.077 126.157 125.077C125.105 125.077 124.395 125.865 124.395 127.019Z" fill="white"></path>
  <path d="M131.16 130.518V120.793H133.186V130.518H131.16Z" fill="white"></path>
  <path d="M120.258 23.4072C133.335 23.4072 143.94 33.9895 143.94 47.039V3.0848C143.94 1.21209 142.276 -0.239512 140.42 0.0329725C129.011 1.72733 120.258 11.5467 120.258 23.4072Z" fill="#1A9DD1"></path>
  <path d="M120.258 23.4082C108.373 23.4082 98.5378 32.1426 96.8349 43.5275C96.5568 45.3804 98.0164 47.0401 99.8931 47.0401H143.94C130.858 47.0401 120.258 36.4577 120.258 23.4082Z" fill="#E91E45"></path>
  <path d="M120.258 23.4082C120.258 36.4577 130.862 47.0401 143.94 47.0401C143.94 33.9856 133.335 23.4082 120.258 23.4082Z" fill="#6C2E68"></path>
  <path d="M143.945 47.04V92.9067C143.945 94.7794 145.609 96.2211 147.465 95.9585C159.405 94.2542 168.58 84.0088 168.58 71.6231C154.972 71.6231 143.945 60.6147 143.945 47.04Z" fill="#F6C318"></path>
  <path d="M143.945 47.04C157.549 47.04 168.58 58.0484 168.58 71.6231C180.992 71.6231 191.259 62.4676 192.967 50.5526C193.23 48.6997 191.785 47.04 189.909 47.04H143.945Z" fill="#57B949"></path>
  <path d="M143.945 47.04C143.945 60.6147 154.977 71.6231 168.58 71.6231C168.58 58.0435 157.549 47.04 143.945 47.04Z" fill="#105B8B"></path>
  <path d="M152.891 47.0342H143.93V38.0918H146.218C149.897 38.0918 152.891 41.0792 152.891 44.7503V47.0342ZM145.906 45.0624H150.478C150.885 45.0624 151.183 44.6909 151.104 44.2896C150.672 42.0651 148.909 40.3064 146.675 39.8704C146.273 39.7911 145.901 40.0884 145.901 40.4946V45.0624H145.906Z" fill="white"></path>
  <path d="M151.939 43.4832L151.363 41.655C151.408 41.6402 155.901 40.6344 160.573 38.8063C160.826 38.7072 161.109 38.8261 161.208 39.0788C161.308 39.3315 161.188 39.6139 160.935 39.7179C156.209 41.6253 151.984 43.4683 151.939 43.4832Z" fill="white"></path>
  <path d="M148.445 39.3355L146.613 38.7608C146.628 38.7162 148.366 34.7627 150.267 30.071C150.367 29.8183 150.655 29.6994 150.908 29.7985C151.156 29.8976 151.275 30.1849 151.181 30.4327C149.354 35.0748 148.46 39.2909 148.445 39.3355Z" fill="white"></path>
</svg>
