<?xml version="1.0" encoding="UTF-8"?>
<svg xmlns="http://www.w3.org/2000/svg" width="516" height="350" viewBox="0 0 516 350" fill="none">
  <path d="M83.7637 174.982C130.46 128.329 206.195 128.329 252.891 174.982L95.6061 17.8406C88.9048 11.1454 77.7715 11.8894 72.1162 19.4879C37.4221 66.2655 41.3223 132.58 83.7637 174.982Z" fill="#1A9DD1"></path>
  <path d="M83.7635 174.983C41.3398 217.368 37.4573 283.7 72.116 330.477C77.7536 338.093 88.9047 338.82 95.6059 332.124L252.891 174.983C206.177 221.654 130.46 221.636 83.7635 174.983Z" fill="#E91E45"></path>
  <path d="M83.7637 174.982C130.46 221.636 206.195 221.636 252.891 174.982C206.159 128.329 130.46 128.329 83.7637 174.982Z" fill="#6C2E68"></path>
  <path d="M252.873 175L417.001 338.979C423.702 345.674 434.8 344.895 440.491 337.332C477.029 288.641 473.129 219.28 428.808 175C380.233 223.531 301.448 223.531 252.873 175Z" fill="#F6C318"></path>
  <path d="M252.873 175C301.448 126.469 380.233 126.469 428.808 175C473.129 130.72 477.029 61.3591 440.491 12.6685C434.8 5.10545 423.702 4.32612 417.001 11.0213L252.873 175Z" fill="#57B949"></path>
  <path d="M252.873 175C301.448 223.531 380.233 223.531 428.808 175C380.215 126.451 301.466 126.451 252.873 175Z" fill="#105B8B"></path>
  <path d="M284.874 143.029L252.874 175L220.875 143.029L229.048 134.864C242.184 121.739 263.565 121.739 276.701 134.864L284.874 143.029ZM252.874 160.901L269.202 144.588C270.656 143.136 270.39 140.744 268.67 139.593C259.168 133.181 246.581 133.181 237.043 139.593C235.323 140.744 235.058 143.136 236.511 144.588L252.874 160.901Z" fill="#104693"></path>
  <path d="M268.706 133.749L260.107 129.268C260.214 129.055 272.659 109.43 282.8 86.2275C283.349 84.97 284.785 84.3855 286.044 84.9346C287.303 85.4836 287.888 86.9183 287.356 88.1936C277.304 111.875 268.812 133.537 268.706 133.749Z" fill="#104693"></path>
  <path d="M241.422 131.394L232.824 135.875C232.718 135.662 224.775 115.329 214.777 91.7716C214.227 90.514 214.83 89.0616 216.088 88.5126C217.329 87.9812 218.783 88.5834 219.333 89.8055C229.42 112.92 241.316 131.181 241.422 131.394Z" fill="#104693"></path>
</svg>
