<svg width="25" height="22" viewBox="0 0 25 22" fill="none" xmlns="http://www.w3.org/2000/svg">
<path d="M24.5857 6.34167L12.8669 0.0916669C12.7539 0.0314793 12.6278 0 12.4998 0C12.3717 0 12.2456 0.0314793 12.1326 0.0916669L0.413818 6.34167C0.288823 6.40828 0.184288 6.50762 0.111396 6.62907C0.0385052 6.75051 0 6.88948 0 7.03112C0 7.17276 0.0385052 7.31173 0.111396 7.43317C0.184288 7.55462 0.288823 7.65396 0.413818 7.72057L3.12476 9.16686V13.8954C3.12385 14.2791 3.26509 14.6496 3.52124 14.9354C4.80054 16.3602 7.66675 18.7499 12.4998 18.7499C14.1022 18.7631 15.6928 18.4729 17.1873 17.8944V21.0936C17.1873 21.3008 17.2696 21.4995 17.4161 21.646C17.5626 21.7926 17.7613 21.8749 17.9685 21.8749C18.1757 21.8749 18.3744 21.7926 18.5209 21.646C18.6674 21.4995 18.7498 21.3008 18.7498 21.0936V17.1395C19.7685 16.5515 20.6892 15.8078 21.4783 14.9354C21.7344 14.6496 21.8757 14.2791 21.8748 13.8954V9.16686L24.5857 7.72057C24.7107 7.65396 24.8152 7.55462 24.8881 7.43317C24.961 7.31173 24.9995 7.17276 24.9995 7.03112C24.9995 6.88948 24.961 6.75051 24.8881 6.62907C24.8152 6.50762 24.7107 6.40828 24.5857 6.34167ZM12.4998 17.1874C8.27417 17.1874 5.78882 15.1229 4.68726 13.8954V9.99987L12.1326 13.9706C12.2456 14.0308 12.3717 14.0622 12.4998 14.0622C12.6278 14.0622 12.7539 14.0308 12.8669 13.9706L17.1873 11.6669V16.1923C15.9568 16.7665 14.406 17.1874 12.4998 17.1874ZM20.3123 13.8915C19.844 14.4112 19.32 14.8778 18.7498 15.2831V10.8329L20.3123 9.99987V13.8915ZM18.3591 9.27135L18.3376 9.25866L12.8689 6.34167C12.6864 6.24847 12.4747 6.23068 12.2792 6.29213C12.0838 6.35357 11.9203 6.48934 11.824 6.67017C11.7277 6.85101 11.7062 7.06244 11.7643 7.25891C11.8224 7.45539 11.9554 7.62118 12.1345 7.72057L16.699 10.1561L12.4998 12.3954L2.44116 7.03112L12.4998 1.66686L22.5583 7.03112L18.3591 9.27135Z" fill="#5C5C5C"/>
</svg>
