<svg width="20" height="21" viewBox="0 0 20 21" fill="none" xmlns="http://www.w3.org/2000/svg">
<path d="M19.4645 17.3206L16.0936 1.29406C16.05 1.08448 15.9654 0.885572 15.8447 0.708775C15.724 0.531977 15.5696 0.38077 15.3903 0.26384C15.211 0.14691 15.0103 0.0665608 14.7999 0.0274091C14.5894 -0.0117426 14.3733 -0.00892533 14.1639 0.035699L9.40977 1.05742C8.98925 1.14949 8.62209 1.40388 8.38815 1.76525C8.15421 2.12662 8.07241 2.56574 8.16055 2.9871L11.5314 19.0137C11.6065 19.3793 11.8052 19.7079 12.0941 19.9443C12.3831 20.1807 12.7445 20.3104 13.1178 20.3116C13.2332 20.3114 13.3483 20.2992 13.4611 20.2751L18.2152 19.2534C18.6363 19.1611 19.0038 18.9062 19.2378 18.5442C19.4717 18.1822 19.5532 17.7424 19.4645 17.3206ZM9.75 2.655V2.64586L14.5031 1.63023L14.8413 3.24203L10.0882 4.26476L9.75 2.655ZM10.4223 5.85117L15.1775 4.83046L15.5167 6.44531L10.7656 7.46703L10.4223 5.85117ZM11.0967 9.0575L15.8519 8.03578L17.2027 14.4586L12.4475 15.4803L11.0967 9.0575ZM17.875 17.6649L13.1219 18.6805L12.7837 17.0687L17.5368 16.046L17.875 17.6558V17.6649ZM6.5 0.811636H1.625C1.19402 0.811636 0.780698 0.982841 0.475951 1.28759C0.171205 1.59233 0 2.00566 0 2.43664V18.6866C0 19.1176 0.171205 19.5309 0.475951 19.8357C0.780698 20.1404 1.19402 20.3116 1.625 20.3116H6.5C6.93098 20.3116 7.3443 20.1404 7.64905 19.8357C7.95379 19.5309 8.125 19.1176 8.125 18.6866V2.43664C8.125 2.00566 7.95379 1.59233 7.64905 1.28759C7.3443 0.982841 6.93098 0.811636 6.5 0.811636ZM1.625 2.43664H6.5V4.06164H1.625V2.43664ZM1.625 5.68664H6.5V15.4366H1.625V5.68664ZM6.5 18.6866H1.625V17.0616H6.5V18.6866Z" fill="#5C5C5C"/>
</svg>
